<svg xmlns="http://www.w3.org/2000/svg" width="956" height="218" viewBox="0 0 956 218" fill="none"><path fill-rule="evenodd" clip-rule="evenodd" d="M327.889 151.854H311.816L285.518 60.4437L259.219 151.854H243.147L277.481 32.5098L279.066 27H291.969L293.554 32.5098L327.889 151.854Z" fill="white"></path><path fill-rule="evenodd" clip-rule="evenodd" d="M261.778 122.56V110.023H308.086V122.56H261.778Z" fill="white"></path><path fill-rule="evenodd" clip-rule="evenodd" d="M336.143 151.854H352.177V75.0925H336.143V151.854Z" fill="white"></path><path fill-rule="evenodd" clip-rule="evenodd" d="M378.614 151.854H394.648V85.5891H378.614V151.854Z" fill="white"></path><path fill-rule="evenodd" clip-rule="evenodd" d="M394.648 80.9312V106.314C394.648 109.822 391.761 112.709 388.253 112.709H378.614V84.7074C378.614 73.3432 352.177 76.3222 352.177 82.7467V112.709H342.539C339.023 112.709 336.143 109.831 336.143 106.314V73.6789C336.143 64.6718 394.648 57.6931 394.648 80.9312Z" fill="white"></path><path fill-rule="evenodd" clip-rule="evenodd" d="M409.572 151.854H425.606V27H415.707C412.333 27 409.572 29.7593 409.572 33.1354V151.854Z" fill="white"></path><path fill-rule="evenodd" clip-rule="evenodd" d="M525.67 149.881C529.948 148.835 535.621 145.414 535.621 141.102V105.372V85.1174V77.7298C535.621 58.1223 480.984 65.0034 480.984 71.1143V82.1192C495.104 79.1357 496.822 77.8663 510.632 77.8663C515.558 77.8663 519.587 81.8045 519.587 86.6182V102.212C514.707 99.7769 509.207 99.2723 503.823 99.3153C472.664 99.5652 474.728 141.151 492.876 149.104C502.26 153.217 516.758 152.06 525.67 149.881ZM519.587 112.873V135.253C519.587 138.622 516.766 141.379 513.318 141.379H508.053C497.315 141.379 495.038 131.352 495.712 122.367C497.005 105.111 519.587 106.462 519.587 112.873Z" fill="white"></path><path fill-rule="evenodd" clip-rule="evenodd" d="M452.043 151.854H468.077V85.5891H452.043V151.854Z" fill="white"></path><path fill-rule="evenodd" clip-rule="evenodd" d="M468.077 79.4806V106.313C468.077 109.815 465.183 112.709 461.681 112.709H452.043V84.7072C452.043 73.3431 425.606 76.322 425.606 82.7465V112.709H415.968C412.464 112.709 409.572 109.831 409.572 106.313V84.3156C409.572 73.0158 467.323 49.724 468.077 79.4806Z" fill="white"></path><path fill-rule="evenodd" clip-rule="evenodd" d="M551.056 151.854H567.09V75.0925H551.056V151.854Z" fill="white"></path><path fill-rule="evenodd" clip-rule="evenodd" d="M593.527 151.854H609.561V85.5891H593.527V151.854Z" fill="white"></path><path fill-rule="evenodd" clip-rule="evenodd" d="M609.561 80.9312V106.314C609.561 109.822 606.674 112.709 603.165 112.709H593.527V84.7074C593.527 73.3432 567.09 76.3222 567.09 82.7467V112.709H557.452C553.936 112.709 551.056 109.831 551.056 106.314V73.6789C551.056 64.6718 609.561 57.6931 609.561 80.9312Z" fill="white"></path><path fill-rule="evenodd" clip-rule="evenodd" d="M758.436 65.2123H742.402V141.974H758.436V65.2123Z" fill="white"></path><path fill-rule="evenodd" clip-rule="evenodd" d="M715.965 65.2123H699.931V131.477H715.965V65.2123Z" fill="white"></path><path fill-rule="evenodd" clip-rule="evenodd" d="M699.931 136.135V110.753C699.931 107.245 702.819 104.357 706.327 104.357H715.965V134.293C715.965 145.657 742.402 142.677 742.402 136.254V104.357H752.041C755.556 104.357 758.436 107.235 758.436 110.753V143.388C758.436 152.395 699.931 159.374 699.931 136.135Z" fill="white"></path><path fill-rule="evenodd" clip-rule="evenodd" d="M879.342 77.9684C871.545 75.5112 861.316 78.3058 861.316 82.7467V112.709H851.678C848.163 112.709 845.282 109.831 845.282 106.314V74.6458C845.282 70.3257 858.74 65.5059 872.745 65.2321C881.633 65.0586 885.794 65.2627 885.794 73.4394V75.2154C885.794 82.2483 884.079 79.4609 879.342 77.9684Z" fill="white"></path><path fill-rule="evenodd" clip-rule="evenodd" d="M686.541 69.2171C677.904 65.2704 635.27 58.4504 625.159 84.6848C619.83 98.5093 620.046 132.281 633.186 144.117C638.537 148.936 646.066 151.855 654.048 151.855C661.978 151.56 667.435 150.445 670.42 148.51C670.296 149.742 670.156 150.857 669.999 151.855C666.718 173.502 653.425 183.132 630.119 180.744C628.923 190.344 632.462 194.48 640.737 193.153C666.661 191.061 686.541 174.394 686.541 147.227V69.2171ZM669.906 78.5341C658.007 78.5341 647.853 75.5572 641.831 88.452C635.656 101.675 636.328 124.595 644.413 134.791C650.297 142.213 669.906 142.9 669.906 131.367V78.5341Z" fill="white"></path><path fill-rule="evenodd" clip-rule="evenodd" d="M213.478 167.419C216.656 173.777 234.265 205.13 235.893 210.867C236.709 213.745 232.738 217.871 228.067 218H117.784H7.82196C-5.85627 218 1.36322 201.357 7.25901 200.094C38.1869 190.019 70.5459 181.901 103.309 175.721C137.422 169.287 171.26 165.315 205.17 163.033L205.17 163.025C209.34 162.745 212.186 164.836 213.478 167.419Z" fill="white"></path><path fill-rule="evenodd" clip-rule="evenodd" d="M75 72.9994C87.2284 49.2265 99.9528 25.9973 112.724 2.46923L112.714 2.45318C113.99 0.168268 118.049 -0.67039 120.38 0.579546C121.347 1.09757 122.059 1.89363 122.472 2.81082L143.393 37.0493L143.409 37.0415C144.684 39.3262 143.828 42.1925 141.497 43.4425C141.203 43.6001 140.899 43.724 140.591 43.8167C115.719 52.7899 98.3275 58.4723 75 72.9994Z" fill="white"></path><path fill-rule="evenodd" clip-rule="evenodd" d="M97.8536 124.981C91.3155 137.612 85.0506 150.873 77.0729 163.564C75.5572 165.975 72.1008 171.317 68.9048 171.895C50.1476 176.405 31.7083 181.574 13 186C14.0646 181.126 26.0473 159.614 29.3593 154.899C32.4347 150.52 34.4628 148.906 37.6649 147.429C54.2595 139.774 79.4967 129.175 97.8536 124.981ZM180.374 110.816C188.274 121.836 195.56 133.772 202.392 146.389L202.408 146.381C203.685 148.664 202.828 151.528 200.492 152.777C199.797 153.149 199.049 153.335 198.308 153.354C191.848 153.849 183.782 154.382 177.903 154.952C172.014 155.524 164.688 155.44 158.201 156.207L158.201 156.21C156.038 156.466 153.279 155.279 152.448 153.424L133.796 121.157L133.78 121.165C132.502 118.882 132.602 116.395 134.938 115.146C135.44 114.877 135.969 114.705 136.505 114.624C142.504 113.287 151.418 112.057 157.183 110.935C163.044 109.795 169.035 109.093 175.155 108.076L175.154 108.067C177.378 107.698 179.506 108.884 180.374 110.816Z" fill="white"></path><path fill-rule="evenodd" clip-rule="evenodd" d="M152.474 55.84L173.26 92.6385L173.275 92.6306C174.796 95.771 174.103 97.7032 169.473 98.5213C126.222 104.416 75.4938 118.103 40 135C42.9609 127.645 60.3206 95.5231 68.3439 89.3167C84.2494 77.0146 135.498 55.0666 146.415 53.2995L146.412 53.286C148.815 52.4274 151.458 53.5666 152.474 55.84Z" fill="white"></path><path d="M927.47 145.36C929.71 145.36 931.794 145.533 933.729 145.864L934.353 145.984C935.768 146.287 936.9 146.747 937.809 147.307L937.904 147.365L938.001 147.419C938.823 147.876 939.434 148.437 939.904 149.126C939.112 149.444 938.327 149.699 937.583 149.881C933.627 150.848 928.571 151.612 923.35 151.805V145.403C924.564 145.375 925.936 145.36 927.47 145.36ZM909.037 134.19C910.586 137.979 913.468 140.793 918.35 141.297V151.803C915.122 151.674 911.944 151.283 909.037 150.541V134.19ZM892.897 71.1143C892.897 65.0035 947.533 58.1223 947.533 77.7295V131.344C943.002 129.044 937.597 127.779 931.499 127.359V112.873C931.499 106.462 908.918 105.112 907.624 122.367C907.459 124.57 907.472 126.836 907.743 129.001L904.037 129.905V148.749C901.54 147.496 899.367 145.595 897.569 143.254V127.872H891.792C890.418 114.247 897.196 99.4642 915.736 99.3155C921.12 99.2725 926.62 99.7771 931.499 102.212V86.6182C931.499 81.8045 927.47 77.8663 922.544 77.8663C908.734 77.8663 907.016 79.1357 892.897 82.1192V71.1143ZM931.499 132.372C938.159 132.87 943.504 134.451 947.533 137.114V141.102C947.533 143.224 946.158 145.128 944.253 146.642C943.31 145.14 942.037 143.942 940.43 143.049C938.766 142.025 936.813 141.321 934.573 140.937C932.691 140.614 930.718 140.428 928.654 140.376C930.364 139.279 931.499 137.39 931.499 135.253V132.372Z" fill="white"></path><path d="M861.316 127.872H860.436L859.292 131.282C856.934 138.311 854.592 145.169 852.266 151.854H845.282V75.0928H861.316V127.872ZM861.316 151.854H857.559C858.807 148.255 860.059 144.607 861.316 140.91V151.854Z" fill="white"></path><path d="M772.747 104.655C778.213 51.6105 831.644 56.692 832.391 91.0113C832.54 97.8754 832.537 105.61 831.387 109.655C830.023 114.454 826.126 114.589 818.768 114.589H788.702C788.702 130.858 797.083 139.51 809.974 139.619C811.402 143.767 812.808 147.729 814.191 151.505C795.643 153.849 768.7 143.906 772.747 104.655ZM824.555 136.722C825.663 139.948 826.763 143.134 827.857 146.28C825.792 148.084 822.761 149.56 819.161 150.535C817.84 146.945 816.498 143.18 815.133 139.239C818.105 138.794 821.257 137.959 824.555 136.722ZM829.063 134.458C830.912 133.267 830.383 133.577 830.714 139.262C830.655 139.093 830.597 138.922 830.538 138.753L829.063 134.458ZM817.114 88.2594C815.518 79.4551 808.623 72.4233 798.594 78.1569C790.099 83.0134 788.709 98.5906 788.693 106.163H804.27C810.17 106.163 814.069 106.649 815.606 105.471C817.976 103.655 817.633 91.1205 817.114 88.2594Z" fill="white"></path><path d="M926.701 132.2C936.045 132.2 943.213 133.992 948.205 137.576C953.261 141.096 955.789 146.376 955.789 153.416C955.789 157.256 955.085 160.552 953.677 163.304C952.333 165.992 950.349 168.2 947.725 169.928C945.165 171.592 942.029 172.808 938.317 173.576C934.605 174.344 930.413 174.728 925.741 174.728H918.349V199.4H909.037V133.832C911.661 133.192 914.573 132.776 917.773 132.584C921.037 132.328 924.013 132.2 926.701 132.2ZM927.469 140.36C923.501 140.36 920.461 140.456 918.349 140.648V166.76H925.357C928.557 166.76 931.437 166.568 933.997 166.184C936.557 165.736 938.701 165.032 940.429 164.072C942.221 163.048 943.597 161.672 944.557 159.944C945.517 158.216 945.997 156.008 945.997 153.32C945.997 150.76 945.485 148.648 944.461 146.984C943.501 145.32 942.157 144.008 940.429 143.048C938.765 142.024 936.813 141.32 934.573 140.936C932.333 140.552 929.965 140.36 927.469 140.36Z" fill="#FAB907"></path><path d="M883.256 132.872H892.568V199.4H883.256V132.872Z" fill="#FAB907"></path><path d="M874.016 132.872C871.584 139.912 869.248 146.44 867.008 152.456C864.832 158.408 862.688 164.072 860.576 169.448C858.464 174.824 856.352 179.976 854.24 184.904C852.192 189.768 850.08 194.6 847.904 199.4H839.168C836.992 194.6 834.848 189.768 832.736 184.904C830.688 179.976 828.576 174.824 826.4 169.448C824.288 164.072 822.112 158.408 819.872 152.456C817.632 146.44 815.328 139.912 812.96 132.872H823.232C826.688 142.984 830.08 152.712 833.408 162.056C836.736 171.4 840.16 180.168 843.68 188.36C847.2 180.232 850.624 171.496 853.952 162.152C857.28 152.744 860.64 142.984 864.032 132.872H874.016Z" fill="#FAB907"></path></svg>