<svg xmlns="http://www.w3.org/2000/svg" width="296" height="62" viewBox="0 0 296 62" fill="none"><g clip-path="url(#clip0_29_5)"><path fill-rule="evenodd" clip-rule="evenodd" d="M14.282 11.7561L148.844 0.274206C157.222 -0.440529 164.664 5.77766 165.385 14.0933L167.089 33.7732C167.809 42.0881 161.545 49.4766 153.167 50.1913L18.6049 61.6732C10.2275 62.3879 2.78418 56.1697 2.06414 47.8541L0.360253 28.1742C-0.35979 19.8592 5.90459 12.4708 14.282 11.7561ZM154.226 31.6608C154.226 33.3268 153.616 34.7914 152.445 35.9531C151.276 37.1142 149.851 37.7205 148.121 37.7205C146.392 37.7205 144.916 37.1142 143.746 35.9531C142.576 34.7914 142.017 33.3268 142.017 31.6608C142.017 28.2268 144.662 25.5505 148.121 25.5505C151.581 25.5505 154.226 28.2268 154.226 31.6608ZM157.177 40.4975C159.618 38.124 160.839 35.1448 160.839 31.6608C160.839 28.1768 159.618 25.197 157.177 22.8241C154.734 20.3998 151.733 19.188 148.121 19.188C144.51 19.188 141.508 20.3998 139.066 22.8241C136.625 25.197 135.404 28.1768 135.404 31.6608C135.404 35.1448 136.625 38.124 139.066 40.4975C141.508 42.8711 144.51 44.0829 148.121 44.0829C151.733 44.0829 154.734 42.8711 157.177 40.4975ZM112.664 43.3253C113.63 43.3253 114.445 42.5677 114.445 41.5579V29.0852C114.445 28.5303 114.597 28.0754 114.902 27.7727C115.97 26.3081 117.192 25.6012 118.565 25.6012C120.651 25.6012 121.668 26.7623 121.668 29.0351V41.5579C121.668 42.5677 122.431 43.3253 123.449 43.3253H126.552C127.519 43.3253 128.281 42.5677 128.281 41.5579V26.6616C128.281 21.9658 125.586 19.188 121.108 19.188C118.26 19.188 116.632 20.2991 114.801 22.3693C114.394 22.9248 113.885 22.7734 113.834 22.3192V21.5109C113.681 20.5519 112.969 19.9457 112.104 19.9457H109.561C108.595 19.9457 107.831 20.754 107.831 21.713V41.5579C107.831 42.5677 108.595 43.3253 109.561 43.3253H112.664ZM96.7924 43.3253C97.8097 43.3253 98.5729 42.5677 98.5729 41.5579V21.713C98.5729 20.754 97.8097 19.9457 96.7924 19.9457H93.689C92.7229 19.9457 91.9596 20.754 91.9596 21.713V41.5579C91.9596 42.5677 92.7229 43.3253 93.689 43.3253H96.7924ZM98.3183 14.3909C99.9462 12.7749 99.9462 10.2506 98.3183 8.68469C96.6903 7.06939 93.8416 7.06939 92.2143 8.68469C90.5863 10.2506 90.5863 12.7749 92.2143 14.3909C93.8416 15.9568 96.6903 15.9568 98.3183 14.3909ZM75.6807 44.0829C78.1734 44.0829 80.2085 43.376 81.7854 42.0121C83.3623 40.6489 84.176 38.8309 84.176 36.6601C84.176 33.024 81.7854 30.8525 77.1562 28.8837C74.9686 27.9241 73.8492 26.965 73.8492 26.0053C73.8492 24.8435 74.6125 24.238 76.1894 24.238C76.9016 24.238 77.8173 24.4901 78.9877 25.0456C80.1064 25.6518 81.0222 25.4498 81.7344 24.4901L82.3961 23.5811C83.1587 22.5713 82.9048 21.2588 81.8365 20.6526C80.0049 19.6929 78.0209 19.188 75.9354 19.188C71.0515 19.188 67.5416 22.0158 67.5416 26.2074C67.5416 29.4893 69.7797 32.065 74.2564 33.8323C76.9016 34.9934 77.8684 35.751 77.8684 37.0135C77.8684 38.1747 77.0541 38.9823 75.4772 38.9823C74.3074 38.9823 72.9335 38.4774 71.4587 37.417C70.2883 36.6094 69.3221 36.7101 68.4574 37.7705L67.7452 38.7302C66.982 39.5885 67.1855 40.8003 68.0503 41.4572C70.2883 43.2246 72.832 44.0829 75.6807 44.0829ZM43.8862 43.3253C44.8531 43.3253 45.6667 42.5677 45.6667 41.5579V29.0852C45.6667 28.5303 45.8192 28.0754 46.1249 27.7727C47.1926 26.3081 48.414 25.6012 49.7873 25.6012C51.8728 25.6012 52.8907 26.7623 52.8907 29.0351V41.5579C52.8907 42.5677 53.654 43.3253 54.6712 43.3253H57.7739C58.7407 43.3253 59.504 42.5677 59.504 41.5579V26.6616C59.504 21.9658 56.8078 19.188 52.331 19.188C49.4823 19.188 47.8543 20.2991 46.0228 22.3693C45.6157 22.9248 45.107 22.7734 45.0566 22.3192V21.5109C44.9041 20.5519 44.1919 19.9457 43.3266 19.9457H40.7829C39.8167 19.9457 39.0534 20.754 39.0534 21.713V41.5579C39.0534 42.5677 39.8167 43.3253 40.7829 43.3253H43.8862ZM14.0247 27.6719C15.093 25.5505 16.8231 24.4901 19.2136 24.4901C21.7063 24.4901 23.3853 25.5505 24.3521 27.6719C24.555 28.0248 24.3521 28.4289 23.8939 28.4289H14.4829C14.0247 28.4289 13.8211 28.0248 14.0247 27.6719ZM19.2136 19.188C15.6016 19.188 12.6003 20.3998 10.1587 22.7734C7.76754 25.147 6.54674 28.1261 6.54674 31.6101C6.54674 35.0948 7.76754 38.0739 10.2098 40.4975C12.6514 42.8711 15.6527 44.0829 19.2647 44.0829C23.4867 44.0829 26.8448 42.467 29.3374 39.2351C30.1 38.3767 29.846 37.1649 28.6252 36.5587L26.6916 35.549C25.6233 34.9934 24.6571 35.1448 23.8939 36.0032C22.7242 37.2656 21.1466 37.9225 19.2647 37.9225C16.4159 37.9225 14.0758 36.1045 13.465 33.4788C13.3125 33.024 13.465 32.8219 13.9233 32.8219H29.5914C30.7618 32.8219 31.6265 32.0143 31.6265 30.9539C31.6265 27.6719 30.4561 24.8942 28.0656 22.622C25.6744 20.3498 22.7242 19.188 19.2136 19.188Z" fill="white"></path><path d="M289.339 31.6608C289.339 33.3267 288.729 34.7913 287.559 35.9531C286.388 37.1142 284.964 37.7204 283.235 37.7204C281.505 37.7204 280.03 37.1142 278.86 35.9531C277.69 34.7913 277.13 33.3267 277.13 31.6608C277.13 28.2268 279.775 25.5504 283.235 25.5504C286.694 25.5504 289.339 28.2268 289.339 31.6608ZM292.29 40.4975C294.732 38.1239 295.953 35.1448 295.953 31.6608C295.953 28.1768 294.732 25.197 292.29 22.824C289.848 20.3998 286.847 19.188 283.235 19.188C279.623 19.188 276.621 20.3998 274.18 22.824C271.738 25.197 270.517 28.1768 270.517 31.6608C270.517 35.1448 271.738 38.1239 274.18 40.4975C276.621 42.8711 279.623 44.0829 283.235 44.0829C286.847 44.0829 289.848 42.8711 292.29 40.4975ZM258.512 43.3252C259.478 43.3252 260.291 42.5676 260.291 41.5579V26.9143C260.291 26.3587 260.546 26.106 261.055 26.106H263.7C264.718 26.106 265.379 25.4497 265.379 24.49V21.6122C265.379 20.6019 264.718 19.9456 263.7 19.9456H261.055C260.546 19.9456 260.291 19.6929 260.291 19.188V15.4402C260.291 14.4805 259.384 13.2602 258.512 13.6728L255.408 15.1406C254.536 15.5526 253.679 15.9483 253.679 16.9073V19.188C253.679 19.6929 253.424 19.9456 252.865 19.9456H251.237C250.27 19.9456 249.609 20.6019 249.609 21.6122V24.49C249.609 25.4497 250.27 26.106 251.237 26.106H252.865C253.424 26.106 253.679 26.3587 253.679 26.9143V41.5579C253.679 42.5676 254.441 43.3252 255.408 43.3252H258.512ZM231.346 43.3252C232.313 43.3252 233.127 42.5676 233.127 41.5579V28.8837C233.127 28.5302 233.177 28.2268 233.33 27.9747C234.348 26.106 235.416 25.197 236.586 25.197C237.4 25.197 238.061 25.5004 238.57 26.106C239.129 26.965 239.893 27.2677 240.808 26.9143L243.911 25.8539C244.979 25.4497 245.284 24.7428 244.827 23.7331C243.606 20.7032 241.673 19.188 238.977 19.188C236.484 19.188 235.161 20.097 233.482 22.1678C233.076 22.622 232.567 22.5713 232.516 22.1171V21.5109C232.364 20.5518 231.651 19.9456 230.786 19.9456H228.243C227.276 19.9456 226.513 20.7539 226.513 21.713V41.5579C226.513 42.5676 227.276 43.3252 228.243 43.3252H231.346ZM201.485 27.6719C202.553 25.5504 204.283 24.49 206.674 24.49C209.166 24.49 210.845 25.5504 211.812 27.6719C212.015 28.0247 211.812 28.4289 211.353 28.4289H201.942C201.485 28.4289 201.281 28.0247 201.485 27.6719ZM206.674 19.188C203.062 19.188 200.06 20.3998 197.618 22.7734C195.228 25.1469 194.007 28.1261 194.007 31.6101C194.007 35.0947 195.228 38.0739 197.669 40.4975C200.111 42.8711 203.112 44.0829 206.724 44.0829C210.947 44.0829 214.304 42.4669 216.797 39.235C217.56 38.3767 217.306 37.1649 216.085 36.5586L214.152 35.5489C213.083 34.9934 212.117 35.1448 211.353 36.0031C210.184 37.2656 208.607 37.9225 206.724 37.9225C203.875 37.9225 201.535 36.1045 200.925 33.4788C200.773 33.024 200.925 32.8219 201.383 32.8219H217.052C218.221 32.8219 219.086 32.0142 219.086 30.9538C219.086 27.6719 217.916 24.8942 215.525 22.622C213.134 20.3498 210.184 19.188 206.674 19.188ZM179.254 44.0829C182.917 44.0829 185.969 42.7697 188.36 40.0933C189.327 39.0836 189.174 38.1239 188.004 37.1649L186.223 35.751C185.358 35.0441 184.443 35.0947 183.477 35.9531C182.408 37.1142 180.984 37.7204 179.254 37.7204C177.524 37.7204 176.049 37.1142 174.879 35.9531C173.709 34.7913 173.149 33.3267 173.149 31.6608C173.149 28.2268 175.795 25.5504 179.254 25.5504C180.729 25.5504 182.052 26.0559 183.273 27.1157C184.189 27.7726 185.053 27.8226 185.867 27.2171L187.699 25.7018C188.97 24.7428 189.072 23.7331 188.055 22.7227C185.664 20.3498 182.764 19.188 179.254 19.188C175.642 19.188 172.641 20.3998 170.199 22.824C167.757 25.197 166.536 28.1768 166.536 31.6608C166.536 35.1448 167.757 38.1239 170.199 40.4975C172.641 42.8711 175.642 44.0829 179.254 44.0829Z" fill="white"></path></g><defs><clipPath id="clip0_29_5"><rect width="296" height="62" fill="white"></rect></clipPath></defs></svg>